# xmcd CD database file
#
# Track frame offsets:
#	150
#	15091
#	31984
#	44117
#	54081
#	67597
#	79435
#	89409
#	103607
#	114075
#	124445
#	135911
#	150239
#	171261
#	183213
#	195771
#	208001
#	225596
#	241443
#	254553
#
# Disc length: 3578 seconds
#
# Revision: 0
# Processed by: cddbd v1.5.2PL0 Copyright (c) Steve Scherf et al.
# Submitted via: jetAudio 7
#
DISCID=f50df814
DTITLE=Chet Atkins - Pickin' My Way and Superpickers
DYEAR=1900
DGENRE=Country
TTITLE0=Lover Come Back To Me
TTITLE1=The Boxer
TTITLE2=Hellacious
TTITLE3=I Never Knew
TTITLE4=Wabash Blues
TTITLE5=Black Mountain Rag
TTITLE6=Junk
TTITLE7=When You Wish Upon A Star
TTITLE8=Floatin' Down To Cotton Town
TTITLE9=Pickin' My Way
TTITLE10=Paramaribo
TTITLE11=Fiddlin' Around
TTITLE12=Mr. Bojangles
TTITLE13=Beef And Biscuits
TTITLE14=Sweet Dreams
TTITLE15=Just Another Rag
TTITLE16=Canadian Pacific
TTITLE17=City Of New Orleans
TTITLE18=The Bells Of St. Mary's
TTITLE19=Are You From Dixie ('Cause I'm From Dixie Too)
EXTD=Raven Records RVCD-360  (©2012)
EXTT0=
EXTT1=
EXTT2=
EXTT3=
EXTT4=
EXTT5=
EXTT6=
EXTT7=
EXTT8=
EXTT9=
EXTT10=
EXTT11=
EXTT12=
EXTT13=
EXTT14=
EXTT15=
EXTT16=
EXTT17=
EXTT18=
EXTT19=
PLAYORDER=
